<svg id="Layer_2" data-name="Layer 2" xmlns="http://www.w3.org/2000/svg" viewBox="0 0 352.91 90.71">
  <defs>
    <style>
      .cls-1 {
        fill: #000;
        stroke-width: 0px;
      }
    </style>
  </defs>
  <g id="Laag_1" data-name="Laag 1">
    <g>
      <path class="cls-1" d="M81.58,45.56h10.95l5.23,17.55c.64,2.2,1.27,6.11,1.27,6.11h.2s.64-3.91,1.32-6.11l5.23-17.55h10.8l-12.32,34.96h-10.32l-12.37-34.96Z"/>
      <path class="cls-1" d="M124.31,45.56h11.34l11.54,34.96h-10.22l-1.86-6.45h-10.32l-1.81,6.45h-10.22l11.54-34.96ZM132.97,66.39l-1.61-5.67c-.59-2.2-1.27-6.26-1.27-6.26h-.2s-.68,4.06-1.32,6.26l-1.61,5.67h6.01Z"/>
      <path class="cls-1" d="M149.88,45.56h10.07l8.6,14.33c1.47,2.4,2.49,5.33,2.49,5.33h.2s-.39-3.13-.39-5.33v-14.33h10.22v34.96h-10.27l-8.65-15.01c-1.27-2.1-2.49-5.28-2.49-5.28h-.2s.39,3.08.39,5.28v15.01h-9.97v-34.96Z"/>
      <path class="cls-1" d="M203.91,54.55h-10.41v-9h31.34v9h-10.41v25.96h-10.51v-25.96Z"/>
      <path class="cls-1" d="M225.76,45.56h10.41l3.47,19.17c.39,2.2.59,4.5.59,4.5h.2s.15-2.45.68-4.5l4.79-19.17h9.24l4.55,19.17c.54,2.2.73,4.5.73,4.5h.2s.1-2.35.54-4.5l3.96-19.17h10.22l-8.85,34.96h-11.15l-4.06-16.92c-.54-2.2-.78-4.84-.78-4.84h-.15s-.24,2.49-.78,4.89l-4.06,16.87h-11.24l-8.51-34.96Z"/>
      <path class="cls-1" d="M278.56,45.56h10.56v34.96h-10.56v-34.96Z"/>
      <path class="cls-1" d="M297.49,68.68s4.06,3.62,8.75,3.62c1.56,0,2.88-.49,2.88-1.96,0-1.86-2.3-2.25-5.82-3.72-4.45-1.81-9.34-4.55-9.34-10.8,0-6.7,5.62-10.85,13.45-10.85,7.33,0,11.59,3.72,11.59,3.72l-3.37,8.17s-3.81-3.08-8.12-3.08c-1.61,0-2.98.39-2.98,1.91,0,1.71,2.05,2.1,4.89,3.23,4.74,1.86,10.27,4.4,10.27,11.15,0,6.11-4.64,11.05-13.15,11.05s-13.35-4.74-13.35-4.74l4.3-7.68Z"/>
      <path class="cls-1" d="M331.95,54.55h-10.41v-9h31.34v9h-10.41v25.96h-10.51v-25.96Z"/>
    </g>
    <g>
      <path class="cls-1" d="M92.08,28.74l-4.03,4.47v6.91h-6.31V12.17h6.31v12.69l11.62-12.69h7.31l-10.5,11.66,11.22,16.29h-7.58l-8.02-11.38Z"/>
      <path class="cls-1" d="M138.35,26.14c0,8.06-6.47,14.25-15.01,14.25s-15.01-6.15-15.01-14.25,6.47-14.17,15.01-14.17,15.01,6.07,15.01,14.17ZM114.8,26.14c0,4.91,3.95,8.74,8.62,8.74s8.46-3.83,8.46-8.74-3.79-8.66-8.46-8.66-8.62,3.75-8.62,8.66Z"/>
      <path class="cls-1" d="M162.06,40.11l-13.53-17.92v17.92h-6.03V12.17h5.75l13.57,17.96V12.17h5.99v27.94h-5.75Z"/>
      <path class="cls-1" d="M173.96,40.11V12.17h6.31v27.94h-6.31Z"/>
      <path class="cls-1" d="M206.01,40.11l-13.53-17.92v17.92h-6.03V12.17h5.75l13.57,17.96V12.17h5.99v27.94h-5.75Z"/>
      <path class="cls-1" d="M228.25,28.74l-4.03,4.47v6.91h-6.31V12.17h6.31v12.69l11.62-12.69h7.3l-10.5,11.66,11.22,16.29h-7.58l-8.02-11.38Z"/>
      <path class="cls-1" d="M265.61,34.6v5.51h-18.28V12.17h6.31v22.43h11.98Z"/>
      <path class="cls-1" d="M269.36,40.11V12.17h6.31v27.94h-6.31Z"/>
      <path class="cls-1" d="M297.15,31.17c0,5.87-3.59,9.22-9.38,9.22-3.75,0-6.79-1.6-9.14-4.35l2.91-4.47c1.96,2.08,4.19,3.11,5.91,3.11,2.08,0,3.35-1.28,3.35-3.67v-13.49h-9.62v-5.35h15.97v19Z"/>
      <path class="cls-1" d="M313.12,28.74l-4.03,4.47v6.91h-6.31V12.17h6.31v12.69l11.62-12.69h7.3l-10.5,11.66,11.22,16.29h-7.58l-8.02-11.38Z"/>
      <path class="cls-1" d="M337.5,17.4v6.07h13.49v5.23h-13.49v6.19h15.41v5.23h-21.72V12.17h21.28v5.23h-14.97Z"/>
    </g>
    <g>
      <path class="cls-1" d="M34.11,45.28h0s-31.76,0-31.76,0H.01l27.92,45.36v.08l.02-.04.02.04.03-.13,27.89-45.31h-21.8ZM3.6,47.3h24.34v39.61L3.6,47.3Z"/>
      <circle class="cls-1" cx="4.06" cy="4.06" r="4.06"/>
      <circle class="cls-1" cx="51.83" cy="4.06" r="4.06"/>
      <circle class="cls-1" cx="27.9" cy="4.06" r="4.06"/>
      <path class="cls-1" d="M55.93,12.15l-17.27,10.63-10.59-10.59-1.43,1.43h0s-9.22,9.23-9.22,9.23L.04,12.15v27.97h2.96l.02.02.02-.02h20.28s0,0,0,0h32.62V13.99h0v-1.84ZM19.21,23.95l8.88-8.88,8.8,8.8-8.9,5.48-8.78-5.4ZM53.91,38.09h-11.73l-12.3-7.57,24.03-14.71v22.28Z"/>
    </g>
  </g>
</svg>
